<mxfile host="app.diagrams.net" agent="Mozilla/5.0 (Windows NT 10.0; Win64; x64; rv:133.0) Gecko/20100101 Firefox/133.0" scale="1" border="0" version="26.0.2">
  <diagram name="Page-1" id="2YBvvXClWsGukQMizWep">
    <mxGraphModel dx="1434" dy="1846" grid="1" gridSize="10" guides="1" tooltips="1" connect="1" arrows="1" fold="1" page="1" pageScale="1" pageWidth="850" pageHeight="1100" math="0" shadow="0">
      <root>
        <mxCell id="0" />
        <mxCell id="1" parent="0" />
        <mxCell id="QDihuIbp6Lw-h8ZXW96g-6" value=":Object" style="shape=umlLifeline;perimeter=lifelinePerimeter;whiteSpace=wrap;html=1;container=1;dropTarget=0;collapsible=0;recursiveResize=0;outlineConnect=0;portConstraint=eastwest;newEdgeStyle={&quot;curved&quot;:0,&quot;rounded&quot;:0};" parent="1" vertex="1">
          <mxGeometry x="780" y="-10" width="100" height="530" as="geometry" />
        </mxCell>
        <mxCell id="CObYJEAy56xA2G8EUnc1-1" value="S&amp;amp;C" style="shape=umlLifeline;perimeter=lifelinePerimeter;whiteSpace=wrap;html=1;container=1;dropTarget=0;collapsible=0;recursiveResize=0;outlineConnect=0;portConstraint=eastwest;newEdgeStyle={&quot;edgeStyle&quot;:&quot;elbowEdgeStyle&quot;,&quot;elbow&quot;:&quot;vertical&quot;,&quot;curved&quot;:0,&quot;rounded&quot;:0};" parent="1" vertex="1">
          <mxGeometry x="320" width="100" height="520" as="geometry" />
        </mxCell>
        <mxCell id="hh9Ni2VgHgSeFQTvjpv2-1" value="" style="html=1;points=[[0,0,0,0,5],[0,1,0,0,-5],[1,0,0,0,5],[1,1,0,0,-5]];perimeter=orthogonalPerimeter;outlineConnect=0;targetShapes=umlLifeline;portConstraint=eastwest;newEdgeStyle={&quot;curved&quot;:0,&quot;rounded&quot;:0};" parent="CObYJEAy56xA2G8EUnc1-1" vertex="1">
          <mxGeometry x="45" y="74" width="10" height="96" as="geometry" />
        </mxCell>
        <mxCell id="SL6PgUiu9ieBlHFa4yMH-13" value="" style="html=1;points=[[0,0,0,0,5],[0,1,0,0,-5],[1,0,0,0,5],[1,1,0,0,-5]];perimeter=orthogonalPerimeter;outlineConnect=0;targetShapes=umlLifeline;portConstraint=eastwest;newEdgeStyle={&quot;curved&quot;:0,&quot;rounded&quot;:0};" parent="CObYJEAy56xA2G8EUnc1-1" vertex="1">
          <mxGeometry x="45" y="390" width="10" height="110" as="geometry" />
        </mxCell>
        <mxCell id="CObYJEAy56xA2G8EUnc1-6" value="" style="shape=umlLifeline;perimeter=lifelinePerimeter;whiteSpace=wrap;html=1;container=1;dropTarget=0;collapsible=0;recursiveResize=0;outlineConnect=0;portConstraint=eastwest;newEdgeStyle={&quot;curved&quot;:0,&quot;rounded&quot;:0};participant=umlActor;" parent="1" vertex="1">
          <mxGeometry x="110" width="20" height="520" as="geometry" />
        </mxCell>
        <mxCell id="CObYJEAy56xA2G8EUnc1-7" value="Company" style="text;html=1;align=center;verticalAlign=middle;resizable=0;points=[];autosize=1;strokeColor=none;fillColor=none;" parent="1" vertex="1">
          <mxGeometry x="160" y="10" width="80" height="30" as="geometry" />
        </mxCell>
        <mxCell id="CObYJEAy56xA2G8EUnc1-8" value="" style="edgeStyle=elbowEdgeStyle;fontSize=12;html=1;endArrow=blockThin;endFill=1;rounded=0;" parent="1" edge="1">
          <mxGeometry width="160" relative="1" as="geometry">
            <mxPoint x="120.10000000000002" y="74" as="sourcePoint" />
            <mxPoint x="369.5" y="74" as="targetPoint" />
            <Array as="points">
              <mxPoint x="270" y="74" />
            </Array>
          </mxGeometry>
        </mxCell>
        <mxCell id="CObYJEAy56xA2G8EUnc1-9" value="requestInternshipPositionList(profile)" style="text;html=1;align=center;verticalAlign=middle;resizable=0;points=[];autosize=1;strokeColor=none;fillColor=none;" parent="1" vertex="1">
          <mxGeometry x="130" y="50" width="230" height="30" as="geometry" />
        </mxCell>
        <mxCell id="CObYJEAy56xA2G8EUnc1-15" value="&lt;b&gt;Interaction&lt;/b&gt; Company Examines Internship Positions" style="shape=umlFrame;whiteSpace=wrap;html=1;pointerEvents=0;width=330;height=30;" parent="1" vertex="1">
          <mxGeometry x="60" y="-50" width="1090" height="620" as="geometry" />
        </mxCell>
        <mxCell id="QDihuIbp6Lw-h8ZXW96g-1" value="API" style="shape=module;align=left;spacingLeft=20;align=center;verticalAlign=top;whiteSpace=wrap;html=1;" parent="1" vertex="1">
          <mxGeometry x="310" y="-10" width="110" height="50" as="geometry" />
        </mxCell>
        <mxCell id="QDihuIbp6Lw-h8ZXW96g-2" value=":Object" style="shape=umlLifeline;perimeter=lifelinePerimeter;whiteSpace=wrap;html=1;container=1;dropTarget=0;collapsible=0;recursiveResize=0;outlineConnect=0;portConstraint=eastwest;newEdgeStyle={&quot;curved&quot;:0,&quot;rounded&quot;:0};" parent="1" vertex="1">
          <mxGeometry x="550" width="100" height="520" as="geometry" />
        </mxCell>
        <mxCell id="QDihuIbp6Lw-h8ZXW96g-15" value="" style="html=1;points=[[0,0,0,0,5],[0,1,0,0,-5],[1,0,0,0,5],[1,1,0,0,-5]];perimeter=orthogonalPerimeter;outlineConnect=0;targetShapes=umlLifeline;portConstraint=eastwest;newEdgeStyle={&quot;curved&quot;:0,&quot;rounded&quot;:0};" parent="QDihuIbp6Lw-h8ZXW96g-2" vertex="1">
          <mxGeometry x="45" y="80" width="10" height="70" as="geometry" />
        </mxCell>
        <mxCell id="QDihuIbp6Lw-h8ZXW96g-4" value="ProfileManager" style="shape=module;align=left;spacingLeft=20;align=center;verticalAlign=top;whiteSpace=wrap;html=1;" parent="1" vertex="1">
          <mxGeometry x="540" y="-10" width="110" height="50" as="geometry" />
        </mxCell>
        <mxCell id="QDihuIbp6Lw-h8ZXW96g-5" value="InternshipManager" style="shape=module;align=left;spacingLeft=20;align=center;verticalAlign=top;whiteSpace=wrap;html=1;" parent="1" vertex="1">
          <mxGeometry x="750" y="-10" width="140" height="50" as="geometry" />
        </mxCell>
        <mxCell id="QDihuIbp6Lw-h8ZXW96g-8" value=":Object" style="shape=umlLifeline;perimeter=lifelinePerimeter;whiteSpace=wrap;html=1;container=1;dropTarget=0;collapsible=0;recursiveResize=0;outlineConnect=0;portConstraint=eastwest;newEdgeStyle={&quot;curved&quot;:0,&quot;rounded&quot;:0};" parent="1" vertex="1">
          <mxGeometry x="1010" y="-10" width="100" height="530" as="geometry" />
        </mxCell>
        <mxCell id="QDihuIbp6Lw-h8ZXW96g-33" value="" style="html=1;points=[[0,0,0,0,5],[0,1,0,0,-5],[1,0,0,0,5],[1,1,0,0,-5]];perimeter=orthogonalPerimeter;outlineConnect=0;targetShapes=umlLifeline;portConstraint=eastwest;newEdgeStyle={&quot;curved&quot;:0,&quot;rounded&quot;:0};" parent="QDihuIbp6Lw-h8ZXW96g-8" vertex="1">
          <mxGeometry x="45" y="100" width="10" height="50" as="geometry" />
        </mxCell>
        <mxCell id="SL6PgUiu9ieBlHFa4yMH-6" value="" style="html=1;points=[[0,0,0,0,5],[0,1,0,0,-5],[1,0,0,0,5],[1,1,0,0,-5]];perimeter=orthogonalPerimeter;outlineConnect=0;targetShapes=umlLifeline;portConstraint=eastwest;newEdgeStyle={&quot;curved&quot;:0,&quot;rounded&quot;:0};" parent="QDihuIbp6Lw-h8ZXW96g-8" vertex="1">
          <mxGeometry x="45" y="252" width="10" height="40" as="geometry" />
        </mxCell>
        <mxCell id="SL6PgUiu9ieBlHFa4yMH-15" value="" style="html=1;points=[[0,0,0,0,5],[0,1,0,0,-5],[1,0,0,0,5],[1,1,0,0,-5]];perimeter=orthogonalPerimeter;outlineConnect=0;targetShapes=umlLifeline;portConstraint=eastwest;newEdgeStyle={&quot;curved&quot;:0,&quot;rounded&quot;:0};" parent="QDihuIbp6Lw-h8ZXW96g-8" vertex="1">
          <mxGeometry x="45" y="430" width="10" height="40" as="geometry" />
        </mxCell>
        <mxCell id="QDihuIbp6Lw-h8ZXW96g-11" value="Database" style="shape=module;align=left;spacingLeft=20;align=center;verticalAlign=top;whiteSpace=wrap;html=1;" parent="1" vertex="1">
          <mxGeometry x="1000" y="-10" width="110" height="50" as="geometry" />
        </mxCell>
        <mxCell id="QDihuIbp6Lw-h8ZXW96g-13" value="requestInternshipPositionList(profile)" style="text;html=1;align=center;verticalAlign=middle;resizable=0;points=[];autosize=1;strokeColor=none;fillColor=none;" parent="1" vertex="1">
          <mxGeometry x="372" y="55" width="230" height="30" as="geometry" />
        </mxCell>
        <mxCell id="QDihuIbp6Lw-h8ZXW96g-14" value="InternshipPositionListPage" style="html=1;verticalAlign=bottom;endArrow=open;dashed=1;endSize=8;curved=0;rounded=0;" parent="1" target="hh9Ni2VgHgSeFQTvjpv2-1" edge="1">
          <mxGeometry x="-0.0023" relative="1" as="geometry">
            <mxPoint x="599" y="150" as="sourcePoint" />
            <mxPoint x="369" y="150" as="targetPoint" />
            <Array as="points">
              <mxPoint x="505" y="150" />
            </Array>
            <mxPoint as="offset" />
          </mxGeometry>
        </mxCell>
        <mxCell id="QDihuIbp6Lw-h8ZXW96g-21" value="redirectToInternshipPositionListPage(profile)" style="html=1;verticalAlign=bottom;endArrow=open;dashed=1;endSize=8;curved=0;rounded=0;" parent="1" target="CObYJEAy56xA2G8EUnc1-6" edge="1">
          <mxGeometry relative="1" as="geometry">
            <mxPoint x="370" y="170" as="sourcePoint" />
            <mxPoint x="140" y="170" as="targetPoint" />
            <Array as="points" />
          </mxGeometry>
        </mxCell>
        <mxCell id="QDihuIbp6Lw-h8ZXW96g-23" value="requestInternshipPositionPage(internshipPosition)" style="text;html=1;align=center;verticalAlign=middle;resizable=0;points=[];autosize=1;strokeColor=none;fillColor=none;" parent="1" vertex="1">
          <mxGeometry x="450" y="207" width="300" height="30" as="geometry" />
        </mxCell>
        <mxCell id="QDihuIbp6Lw-h8ZXW96g-25" value="getInternshipPositionDetails(internshipPosition)" style="text;html=1;align=center;verticalAlign=middle;resizable=0;points=[];autosize=1;strokeColor=none;fillColor=none;" parent="1" vertex="1">
          <mxGeometry x="825" y="217" width="290" height="30" as="geometry" />
        </mxCell>
        <mxCell id="QDihuIbp6Lw-h8ZXW96g-27" value="" style="edgeStyle=elbowEdgeStyle;fontSize=12;html=1;endArrow=blockThin;endFill=1;rounded=0;" parent="1" target="SL6PgUiu9ieBlHFa4yMH-6" edge="1">
          <mxGeometry width="160" relative="1" as="geometry">
            <mxPoint x="835" y="242" as="sourcePoint" />
            <mxPoint x="1055" y="242" as="targetPoint" />
            <Array as="points">
              <mxPoint x="960" y="242" />
            </Array>
          </mxGeometry>
        </mxCell>
        <mxCell id="QDihuIbp6Lw-h8ZXW96g-28" value="" style="html=1;points=[[0,0,0,0,5],[0,1,0,0,-5],[1,0,0,0,5],[1,1,0,0,-5]];perimeter=orthogonalPerimeter;outlineConnect=0;targetShapes=umlLifeline;portConstraint=eastwest;newEdgeStyle={&quot;curved&quot;:0,&quot;rounded&quot;:0};" parent="1" vertex="1">
          <mxGeometry x="825" y="230" width="10" height="60" as="geometry" />
        </mxCell>
        <mxCell id="QDihuIbp6Lw-h8ZXW96g-29" value="internshipPositionDetails" style="html=1;verticalAlign=bottom;endArrow=open;dashed=1;endSize=8;curved=0;rounded=0;" parent="1" target="QDihuIbp6Lw-h8ZXW96g-28" edge="1">
          <mxGeometry relative="1" as="geometry">
            <mxPoint x="1060" y="282.05" as="sourcePoint" />
            <mxPoint x="835" y="282.05" as="targetPoint" />
            <Array as="points">
              <mxPoint x="971" y="281" />
            </Array>
          </mxGeometry>
        </mxCell>
        <mxCell id="QDihuIbp6Lw-h8ZXW96g-30" value="" style="html=1;points=[[0,0,0,0,5],[0,1,0,0,-5],[1,0,0,0,5],[1,1,0,0,-5]];perimeter=orthogonalPerimeter;outlineConnect=0;targetShapes=umlLifeline;portConstraint=eastwest;newEdgeStyle={&quot;curved&quot;:0,&quot;rounded&quot;:0};" parent="1" vertex="1">
          <mxGeometry x="365" y="222" width="10" height="88" as="geometry" />
        </mxCell>
        <mxCell id="QDihuIbp6Lw-h8ZXW96g-32" value="internshipPositionDetailsPage" style="html=1;verticalAlign=bottom;endArrow=open;dashed=1;endSize=8;curved=0;rounded=0;" parent="1" edge="1">
          <mxGeometry x="0.0011" relative="1" as="geometry">
            <mxPoint x="825" y="290" as="sourcePoint" />
            <mxPoint x="375.0000000000001" y="290" as="targetPoint" />
            <Array as="points">
              <mxPoint x="800" y="290" />
            </Array>
            <mxPoint as="offset" />
          </mxGeometry>
        </mxCell>
        <mxCell id="QDihuIbp6Lw-h8ZXW96g-3" value="" style="edgeStyle=elbowEdgeStyle;fontSize=12;html=1;endArrow=blockThin;endFill=1;rounded=0;" parent="1" source="hh9Ni2VgHgSeFQTvjpv2-1" edge="1">
          <mxGeometry width="160" relative="1" as="geometry">
            <mxPoint x="370" y="80" as="sourcePoint" />
            <mxPoint x="599.5" y="80" as="targetPoint" />
            <Array as="points">
              <mxPoint x="495" y="80" />
            </Array>
          </mxGeometry>
        </mxCell>
        <mxCell id="QDihuIbp6Lw-h8ZXW96g-17" value="requestInternshipPositionPage(internshipPosition)" style="text;html=1;align=center;verticalAlign=middle;resizable=0;points=[];autosize=1;strokeColor=none;fillColor=none;" parent="1" vertex="1">
          <mxGeometry x="105" y="196" width="300" height="30" as="geometry" />
        </mxCell>
        <mxCell id="QDihuIbp6Lw-h8ZXW96g-20" value="" style="edgeStyle=elbowEdgeStyle;fontSize=12;html=1;endArrow=blockThin;endFill=1;rounded=0;" parent="1" source="CObYJEAy56xA2G8EUnc1-6" target="QDihuIbp6Lw-h8ZXW96g-30" edge="1">
          <mxGeometry width="160" relative="1" as="geometry">
            <mxPoint x="144.25" y="222" as="sourcePoint" />
            <mxPoint x="370" y="222" as="targetPoint" />
            <Array as="points">
              <mxPoint x="270.25" y="222" />
            </Array>
          </mxGeometry>
        </mxCell>
        <mxCell id="QDihuIbp6Lw-h8ZXW96g-22" value="" style="edgeStyle=elbowEdgeStyle;fontSize=12;html=1;endArrow=blockThin;endFill=1;rounded=0;" parent="1" edge="1">
          <mxGeometry width="160" relative="1" as="geometry">
            <mxPoint x="375" y="230" as="sourcePoint" />
            <mxPoint x="829.5" y="230" as="targetPoint" />
            <Array as="points">
              <mxPoint x="496" y="230" />
            </Array>
          </mxGeometry>
        </mxCell>
        <mxCell id="N4ezWAQjIMXn5G-POvpN-3" value="redirectToInternshipPositionPage(internshipPosition)" style="html=1;verticalAlign=bottom;endArrow=open;dashed=1;endSize=8;curved=0;rounded=0;" parent="1" source="QDihuIbp6Lw-h8ZXW96g-30" target="CObYJEAy56xA2G8EUnc1-6" edge="1">
          <mxGeometry x="0.0001" relative="1" as="geometry">
            <mxPoint x="365.00000000000006" y="310" as="sourcePoint" />
            <mxPoint x="139.30999999999997" y="310" as="targetPoint" />
            <Array as="points">
              <mxPoint x="275.50000000000006" y="310" />
            </Array>
            <mxPoint as="offset" />
          </mxGeometry>
        </mxCell>
        <mxCell id="SL6PgUiu9ieBlHFa4yMH-7" value="opt" style="shape=umlFrame;whiteSpace=wrap;html=1;pointerEvents=0;width=60;height=30;" parent="1" vertex="1">
          <mxGeometry x="80" y="340" width="1050" height="190" as="geometry" />
        </mxCell>
        <mxCell id="SL6PgUiu9ieBlHFa4yMH-8" value="[list matched candidates]" style="text;html=1;align=center;verticalAlign=middle;resizable=0;points=[];autosize=1;strokeColor=none;fillColor=none;" parent="1" vertex="1">
          <mxGeometry x="140" y="340" width="160" height="30" as="geometry" />
        </mxCell>
        <mxCell id="SL6PgUiu9ieBlHFa4yMH-9" value="requestMatchedCandidatesList(internshipPosition)" style="text;html=1;align=center;verticalAlign=middle;resizable=0;points=[];autosize=1;strokeColor=none;fillColor=none;" parent="1" vertex="1">
          <mxGeometry x="102" y="366" width="290" height="30" as="geometry" />
        </mxCell>
        <mxCell id="SL6PgUiu9ieBlHFa4yMH-10" value="" style="edgeStyle=elbowEdgeStyle;fontSize=12;html=1;endArrow=blockThin;endFill=1;rounded=0;" parent="1" edge="1">
          <mxGeometry width="160" relative="1" as="geometry">
            <mxPoint x="120.16666666666663" y="390" as="sourcePoint" />
            <mxPoint x="369.5" y="390" as="targetPoint" />
            <Array as="points">
              <mxPoint x="265.25" y="390" />
            </Array>
          </mxGeometry>
        </mxCell>
        <mxCell id="SL6PgUiu9ieBlHFa4yMH-12" value="requestMatchedCandidatesList(internshipPosition)" style="text;html=1;align=center;verticalAlign=middle;resizable=0;points=[];autosize=1;strokeColor=none;fillColor=none;" parent="1" vertex="1">
          <mxGeometry x="450" y="380" width="290" height="30" as="geometry" />
        </mxCell>
        <mxCell id="SL6PgUiu9ieBlHFa4yMH-14" value="" style="html=1;points=[[0,0,0,0,5],[0,1,0,0,-5],[1,0,0,0,5],[1,1,0,0,-5]];perimeter=orthogonalPerimeter;outlineConnect=0;targetShapes=umlLifeline;portConstraint=eastwest;newEdgeStyle={&quot;curved&quot;:0,&quot;rounded&quot;:0};" parent="1" vertex="1">
          <mxGeometry x="825" y="405" width="10" height="75" as="geometry" />
        </mxCell>
        <mxCell id="SL6PgUiu9ieBlHFa4yMH-11" value="" style="edgeStyle=elbowEdgeStyle;fontSize=12;html=1;endArrow=blockThin;endFill=1;rounded=0;" parent="1" edge="1">
          <mxGeometry width="160" relative="1" as="geometry">
            <mxPoint x="375" y="405" as="sourcePoint" />
            <mxPoint x="825" y="405" as="targetPoint" />
            <Array as="points">
              <mxPoint x="498.75" y="405" />
            </Array>
          </mxGeometry>
        </mxCell>
        <mxCell id="SL6PgUiu9ieBlHFa4yMH-16" value="" style="edgeStyle=elbowEdgeStyle;fontSize=12;html=1;endArrow=blockThin;endFill=1;rounded=0;" parent="1" edge="1">
          <mxGeometry width="160" relative="1" as="geometry">
            <mxPoint x="835" y="420" as="sourcePoint" />
            <mxPoint x="1055" y="420" as="targetPoint" />
            <Array as="points">
              <mxPoint x="960" y="420" />
            </Array>
          </mxGeometry>
        </mxCell>
        <mxCell id="SL6PgUiu9ieBlHFa4yMH-17" value="getMatchedCandidatesList(internshipPosition)" style="text;html=1;align=center;verticalAlign=middle;resizable=0;points=[];autosize=1;strokeColor=none;fillColor=none;" parent="1" vertex="1">
          <mxGeometry x="830" y="395" width="280" height="30" as="geometry" />
        </mxCell>
        <mxCell id="SL6PgUiu9ieBlHFa4yMH-18" value="matchedCandidatesList" style="html=1;verticalAlign=bottom;endArrow=open;dashed=1;endSize=8;curved=0;rounded=0;" parent="1" edge="1">
          <mxGeometry relative="1" as="geometry">
            <mxPoint x="1060" y="460.05" as="sourcePoint" />
            <mxPoint x="835" y="459" as="targetPoint" />
            <Array as="points">
              <mxPoint x="971" y="459" />
            </Array>
          </mxGeometry>
        </mxCell>
        <mxCell id="SL6PgUiu9ieBlHFa4yMH-19" value="matchedCandidatesListPage" style="html=1;verticalAlign=bottom;endArrow=open;dashed=1;endSize=8;curved=0;rounded=0;" parent="1" edge="1">
          <mxGeometry x="0.0011" relative="1" as="geometry">
            <mxPoint x="825" y="480" as="sourcePoint" />
            <mxPoint x="375.0000000000001" y="480" as="targetPoint" />
            <Array as="points">
              <mxPoint x="800" y="480" />
            </Array>
            <mxPoint as="offset" />
          </mxGeometry>
        </mxCell>
        <mxCell id="SL6PgUiu9ieBlHFa4yMH-20" value="redirectToMatchedCandidatesListPage(candidatesList)" style="html=1;verticalAlign=bottom;endArrow=open;dashed=1;endSize=8;curved=0;rounded=0;" parent="1" edge="1">
          <mxGeometry x="0.0001" relative="1" as="geometry">
            <mxPoint x="365" y="500" as="sourcePoint" />
            <mxPoint x="120" y="500" as="targetPoint" />
            <Array as="points">
              <mxPoint x="275.50000000000006" y="500" />
            </Array>
            <mxPoint as="offset" />
          </mxGeometry>
        </mxCell>
        <mxCell id="jquPQ06SUG6YV7H0RAbW-1" value="getInternshipPositionList(profile)" style="text;html=1;align=center;verticalAlign=middle;resizable=0;points=[];autosize=1;strokeColor=none;fillColor=none;" parent="1" vertex="1">
          <mxGeometry x="730" y="66" width="200" height="30" as="geometry" />
        </mxCell>
        <mxCell id="jquPQ06SUG6YV7H0RAbW-3" value="" style="edgeStyle=elbowEdgeStyle;fontSize=12;html=1;endArrow=blockThin;endFill=1;rounded=0;elbow=vertical;" parent="1" edge="1" target="QDihuIbp6Lw-h8ZXW96g-33">
          <mxGeometry x="-0.0435" y="30" width="160" relative="1" as="geometry">
            <mxPoint x="605" y="90" as="sourcePoint" />
            <mxPoint x="825" y="90" as="targetPoint" />
            <Array as="points">
              <mxPoint x="725" y="90" />
            </Array>
            <mxPoint as="offset" />
          </mxGeometry>
        </mxCell>
        <mxCell id="jquPQ06SUG6YV7H0RAbW-6" value="InternshipPositionList" style="html=1;verticalAlign=bottom;endArrow=open;dashed=1;endSize=8;curved=0;rounded=0;" parent="1" edge="1" source="QDihuIbp6Lw-h8ZXW96g-33">
          <mxGeometry x="-0.0002" relative="1" as="geometry">
            <mxPoint x="825" y="139.6" as="sourcePoint" />
            <mxPoint x="605" y="139.6" as="targetPoint" />
            <Array as="points">
              <mxPoint x="605.75" y="139.6" />
            </Array>
            <mxPoint as="offset" />
          </mxGeometry>
        </mxCell>
      </root>
    </mxGraphModel>
  </diagram>
</mxfile>
